<mxfile host="Electron" agent="Mozilla/5.0 (Windows NT 10.0; Win64; x64) AppleWebKit/537.36 (KHTML, like Gecko) draw.io/27.0.9 Chrome/134.0.6998.205 Electron/35.4.0 Safari/537.36" version="27.0.9">
  <diagram name="Page-1" id="ozqfW-VLrdV21BE5dFM0">
    <mxGraphModel dx="2830" dy="1115" grid="1" gridSize="10" guides="1" tooltips="1" connect="1" arrows="1" fold="1" page="1" pageScale="1" pageWidth="1169" pageHeight="827" math="0" shadow="0">
      <root>
        <mxCell id="0" />
        <mxCell id="1" parent="0" />
        <mxCell id="fGjEsx-1ew5XHZKRS1k6-10" value="" style="rounded=1;whiteSpace=wrap;html=1;" vertex="1" parent="1">
          <mxGeometry x="840" y="40" width="200" height="440" as="geometry" />
        </mxCell>
        <mxCell id="fGjEsx-1ew5XHZKRS1k6-4" value="MySQL DB&lt;div&gt;FlashCards&lt;/div&gt;" style="shape=cylinder3;whiteSpace=wrap;html=1;boundedLbl=1;backgroundOutline=1;size=15;" vertex="1" parent="1">
          <mxGeometry x="900" y="350" width="80" height="110" as="geometry" />
        </mxCell>
        <mxCell id="fGjEsx-1ew5XHZKRS1k6-202" value="" style="rounded=0;whiteSpace=wrap;html=1;" vertex="1" parent="1">
          <mxGeometry x="870" y="70" width="140" height="190" as="geometry" />
        </mxCell>
        <mxCell id="fGjEsx-1ew5XHZKRS1k6-6" value="Authentication" style="rounded=0;whiteSpace=wrap;html=1;" vertex="1" parent="1">
          <mxGeometry x="880" y="100" width="120" height="60" as="geometry" />
        </mxCell>
        <mxCell id="fGjEsx-1ew5XHZKRS1k6-8" value="Database Request" style="rounded=0;whiteSpace=wrap;html=1;" vertex="1" parent="1">
          <mxGeometry x="880" y="180" width="120" height="60" as="geometry" />
        </mxCell>
        <mxCell id="fGjEsx-1ew5XHZKRS1k6-11" value="Server" style="text;html=1;align=center;verticalAlign=middle;resizable=0;points=[];autosize=1;strokeColor=none;fillColor=none;" vertex="1" parent="1">
          <mxGeometry x="910" y="40" width="60" height="30" as="geometry" />
        </mxCell>
        <mxCell id="fGjEsx-1ew5XHZKRS1k6-13" value="" style="rounded=1;whiteSpace=wrap;html=1;" vertex="1" parent="1">
          <mxGeometry x="250" y="80" width="200" height="170" as="geometry" />
        </mxCell>
        <mxCell id="fGjEsx-1ew5XHZKRS1k6-14" value="Client" style="text;html=1;align=center;verticalAlign=middle;resizable=0;points=[];autosize=1;strokeColor=none;fillColor=none;" vertex="1" parent="1">
          <mxGeometry x="325" y="80" width="50" height="30" as="geometry" />
        </mxCell>
        <mxCell id="fGjEsx-1ew5XHZKRS1k6-16" value="&lt;span style=&quot;text-wrap-mode: nowrap;&quot;&gt;C#/WPF/.Net&lt;/span&gt;" style="rounded=0;whiteSpace=wrap;html=1;" vertex="1" parent="1">
          <mxGeometry x="290" y="120" width="120" height="100" as="geometry" />
        </mxCell>
        <mxCell id="fGjEsx-1ew5XHZKRS1k6-19" value="" style="endArrow=classic;html=1;rounded=0;exitX=1;exitY=0;exitDx=0;exitDy=0;entryX=0;entryY=0.25;entryDx=0;entryDy=0;" edge="1" parent="1" source="fGjEsx-1ew5XHZKRS1k6-16" target="fGjEsx-1ew5XHZKRS1k6-6">
          <mxGeometry width="50" height="50" relative="1" as="geometry">
            <mxPoint x="580" y="220" as="sourcePoint" />
            <mxPoint x="630" y="170" as="targetPoint" />
          </mxGeometry>
        </mxCell>
        <mxCell id="fGjEsx-1ew5XHZKRS1k6-20" value="Prüfziffer anfordern" style="edgeLabel;html=1;align=center;verticalAlign=middle;resizable=0;points=[];" vertex="1" connectable="0" parent="fGjEsx-1ew5XHZKRS1k6-19">
          <mxGeometry x="-0.0546" y="2" relative="1" as="geometry">
            <mxPoint as="offset" />
          </mxGeometry>
        </mxCell>
        <mxCell id="fGjEsx-1ew5XHZKRS1k6-21" value="" style="endArrow=classic;html=1;rounded=0;exitX=0;exitY=0.75;exitDx=0;exitDy=0;entryX=1;entryY=0.25;entryDx=0;entryDy=0;" edge="1" parent="1" source="fGjEsx-1ew5XHZKRS1k6-6" target="fGjEsx-1ew5XHZKRS1k6-16">
          <mxGeometry width="50" height="50" relative="1" as="geometry">
            <mxPoint x="845" y="250" as="sourcePoint" />
            <mxPoint x="365" y="360" as="targetPoint" />
          </mxGeometry>
        </mxCell>
        <mxCell id="fGjEsx-1ew5XHZKRS1k6-22" value="Ziffer bekommen" style="edgeLabel;html=1;align=center;verticalAlign=middle;resizable=0;points=[];" vertex="1" connectable="0" parent="fGjEsx-1ew5XHZKRS1k6-21">
          <mxGeometry x="0.1028" y="-2" relative="1" as="geometry">
            <mxPoint as="offset" />
          </mxGeometry>
        </mxCell>
        <mxCell id="fGjEsx-1ew5XHZKRS1k6-23" value="" style="endArrow=classic;html=1;rounded=0;exitX=1;exitY=0.75;exitDx=0;exitDy=0;entryX=0;entryY=0.25;entryDx=0;entryDy=0;" edge="1" parent="1" source="fGjEsx-1ew5XHZKRS1k6-16" target="fGjEsx-1ew5XHZKRS1k6-8">
          <mxGeometry width="50" height="50" relative="1" as="geometry">
            <mxPoint x="580" y="220" as="sourcePoint" />
            <mxPoint x="880" y="175" as="targetPoint" />
          </mxGeometry>
        </mxCell>
        <mxCell id="fGjEsx-1ew5XHZKRS1k6-24" value="Sende berechnete&lt;div&gt;Hash, Username, Passwort&lt;/div&gt;" style="edgeLabel;html=1;align=center;verticalAlign=middle;resizable=0;points=[];" vertex="1" connectable="0" parent="fGjEsx-1ew5XHZKRS1k6-23">
          <mxGeometry x="-0.0695" y="-1" relative="1" as="geometry">
            <mxPoint y="-5" as="offset" />
          </mxGeometry>
        </mxCell>
        <mxCell id="fGjEsx-1ew5XHZKRS1k6-25" value="" style="endArrow=classic;html=1;rounded=0;exitX=0.75;exitY=1;exitDx=0;exitDy=0;entryX=0.855;entryY=0;entryDx=0;entryDy=4.35;entryPerimeter=0;" edge="1" parent="1" source="fGjEsx-1ew5XHZKRS1k6-8" target="fGjEsx-1ew5XHZKRS1k6-4">
          <mxGeometry width="50" height="50" relative="1" as="geometry">
            <mxPoint x="1070" y="300" as="sourcePoint" />
            <mxPoint x="1150" y="260" as="targetPoint" />
          </mxGeometry>
        </mxCell>
        <mxCell id="fGjEsx-1ew5XHZKRS1k6-26" value="DB&lt;div&gt;Abfragen&lt;/div&gt;" style="edgeLabel;html=1;align=center;verticalAlign=middle;resizable=0;points=[];" vertex="1" connectable="0" parent="fGjEsx-1ew5XHZKRS1k6-25">
          <mxGeometry x="-0.1482" y="1" relative="1" as="geometry">
            <mxPoint as="offset" />
          </mxGeometry>
        </mxCell>
        <mxCell id="fGjEsx-1ew5XHZKRS1k6-29" value="" style="endArrow=classic;html=1;rounded=0;entryX=0.25;entryY=1;entryDx=0;entryDy=0;exitX=0.145;exitY=0;exitDx=0;exitDy=4.35;exitPerimeter=0;" edge="1" parent="1" source="fGjEsx-1ew5XHZKRS1k6-4" target="fGjEsx-1ew5XHZKRS1k6-8">
          <mxGeometry width="50" height="50" relative="1" as="geometry">
            <mxPoint x="740" y="320" as="sourcePoint" />
            <mxPoint x="790" y="270" as="targetPoint" />
          </mxGeometry>
        </mxCell>
        <mxCell id="fGjEsx-1ew5XHZKRS1k6-30" value="Rückgabe&lt;div&gt;Daten&lt;/div&gt;" style="edgeLabel;html=1;align=center;verticalAlign=middle;resizable=0;points=[];" vertex="1" connectable="0" parent="fGjEsx-1ew5XHZKRS1k6-29">
          <mxGeometry x="-0.0226" y="1" relative="1" as="geometry">
            <mxPoint as="offset" />
          </mxGeometry>
        </mxCell>
        <mxCell id="fGjEsx-1ew5XHZKRS1k6-31" value="" style="endArrow=classic;html=1;rounded=0;exitX=0;exitY=0.75;exitDx=0;exitDy=0;entryX=1;entryY=1;entryDx=0;entryDy=0;" edge="1" parent="1" source="fGjEsx-1ew5XHZKRS1k6-8" target="fGjEsx-1ew5XHZKRS1k6-16">
          <mxGeometry width="50" height="50" relative="1" as="geometry">
            <mxPoint x="630" y="130" as="sourcePoint" />
            <mxPoint x="680" y="80" as="targetPoint" />
          </mxGeometry>
        </mxCell>
        <mxCell id="fGjEsx-1ew5XHZKRS1k6-32" value="Rückgabe aus DB" style="edgeLabel;html=1;align=center;verticalAlign=middle;resizable=0;points=[];" vertex="1" connectable="0" parent="fGjEsx-1ew5XHZKRS1k6-31">
          <mxGeometry x="0.0862" relative="1" as="geometry">
            <mxPoint as="offset" />
          </mxGeometry>
        </mxCell>
        <mxCell id="fGjEsx-1ew5XHZKRS1k6-33" value="" style="endArrow=openThin;dashed=1;html=1;dashPattern=1 3;strokeWidth=2;rounded=0;exitX=1;exitY=0.5;exitDx=0;exitDy=0;endFill=0;entryX=0;entryY=0.5;entryDx=0;entryDy=0;" edge="1" parent="1" source="fGjEsx-1ew5XHZKRS1k6-6" target="fGjEsx-1ew5XHZKRS1k6-198">
          <mxGeometry width="50" height="50" relative="1" as="geometry">
            <mxPoint x="1130" y="170" as="sourcePoint" />
            <mxPoint x="1200" y="110" as="targetPoint" />
          </mxGeometry>
        </mxCell>
        <mxCell id="fGjEsx-1ew5XHZKRS1k6-34" value="" style="endArrow=openThin;dashed=1;html=1;dashPattern=1 3;strokeWidth=2;rounded=0;exitX=1;exitY=0.5;exitDx=0;exitDy=0;endFill=0;entryX=0;entryY=0.5;entryDx=0;entryDy=0;" edge="1" parent="1" source="fGjEsx-1ew5XHZKRS1k6-8" target="fGjEsx-1ew5XHZKRS1k6-201">
          <mxGeometry width="50" height="50" relative="1" as="geometry">
            <mxPoint x="1050" y="220" as="sourcePoint" />
            <mxPoint x="1200" y="230" as="targetPoint" />
          </mxGeometry>
        </mxCell>
        <mxCell id="fGjEsx-1ew5XHZKRS1k6-35" value="" style="endArrow=openThin;dashed=1;html=1;dashPattern=1 3;strokeWidth=2;rounded=0;exitX=1;exitY=0.5;exitDx=0;exitDy=0;endFill=0;exitPerimeter=0;entryX=0.5;entryY=0;entryDx=0;entryDy=0;" edge="1" parent="1" source="fGjEsx-1ew5XHZKRS1k6-4" target="fGjEsx-1ew5XHZKRS1k6-196">
          <mxGeometry width="50" height="50" relative="1" as="geometry">
            <mxPoint x="1090" y="390" as="sourcePoint" />
            <mxPoint x="1140" y="580" as="targetPoint" />
            <Array as="points">
              <mxPoint x="1315" y="405" />
            </Array>
          </mxGeometry>
        </mxCell>
        <mxCell id="fGjEsx-1ew5XHZKRS1k6-197" value="" style="group" vertex="1" connectable="0" parent="1">
          <mxGeometry x="670" y="600" width="1240" height="850" as="geometry" />
        </mxCell>
        <mxCell id="fGjEsx-1ew5XHZKRS1k6-196" value="" style="rounded=0;whiteSpace=wrap;html=1;" vertex="1" parent="fGjEsx-1ew5XHZKRS1k6-197">
          <mxGeometry x="25" width="1240" height="850" as="geometry" />
        </mxCell>
        <mxCell id="fGjEsx-1ew5XHZKRS1k6-36" value="users" style="shape=table;startSize=30;container=1;collapsible=1;childLayout=tableLayout;fixedRows=1;rowLines=0;fontStyle=1;align=center;resizeLast=1;" vertex="1" parent="fGjEsx-1ew5XHZKRS1k6-197">
          <mxGeometry x="480.37795275590554" y="608.5227272727273" width="302.6771653543307" height="180" as="geometry" />
        </mxCell>
        <mxCell id="fGjEsx-1ew5XHZKRS1k6-37" value="" style="shape=tableRow;horizontal=0;startSize=0;swimlaneHead=0;swimlaneBody=0;fillColor=none;collapsible=0;dropTarget=0;points=[[0,0.5],[1,0.5]];portConstraint=eastwest;strokeColor=inherit;top=0;left=0;right=0;bottom=1;" vertex="1" parent="fGjEsx-1ew5XHZKRS1k6-36">
          <mxGeometry y="30" width="302.6771653543307" height="30" as="geometry" />
        </mxCell>
        <mxCell id="fGjEsx-1ew5XHZKRS1k6-38" value="PK" style="shape=partialRectangle;overflow=hidden;connectable=0;fillColor=none;strokeColor=inherit;top=0;left=0;bottom=0;right=0;fontStyle=1;" vertex="1" parent="fGjEsx-1ew5XHZKRS1k6-37">
          <mxGeometry width="30" height="30" as="geometry">
            <mxRectangle width="30" height="30" as="alternateBounds" />
          </mxGeometry>
        </mxCell>
        <mxCell id="fGjEsx-1ew5XHZKRS1k6-39" value="id bigint " style="shape=partialRectangle;overflow=hidden;connectable=0;fillColor=none;align=left;strokeColor=inherit;top=0;left=0;bottom=0;right=0;spacingLeft=6;fontStyle=5;" vertex="1" parent="fGjEsx-1ew5XHZKRS1k6-37">
          <mxGeometry x="30" width="272.6771653543307" height="30" as="geometry">
            <mxRectangle width="272.6771653543307" height="30" as="alternateBounds" />
          </mxGeometry>
        </mxCell>
        <mxCell id="fGjEsx-1ew5XHZKRS1k6-40" value="" style="shape=tableRow;horizontal=0;startSize=0;swimlaneHead=0;swimlaneBody=0;fillColor=none;collapsible=0;dropTarget=0;points=[[0,0.5],[1,0.5]];portConstraint=eastwest;strokeColor=inherit;top=0;left=0;right=0;bottom=0;" vertex="1" parent="fGjEsx-1ew5XHZKRS1k6-36">
          <mxGeometry y="60" width="302.6771653543307" height="30" as="geometry" />
        </mxCell>
        <mxCell id="fGjEsx-1ew5XHZKRS1k6-41" value="" style="shape=partialRectangle;overflow=hidden;connectable=0;fillColor=none;strokeColor=inherit;top=0;left=0;bottom=0;right=0;" vertex="1" parent="fGjEsx-1ew5XHZKRS1k6-40">
          <mxGeometry width="30" height="30" as="geometry">
            <mxRectangle width="30" height="30" as="alternateBounds" />
          </mxGeometry>
        </mxCell>
        <mxCell id="fGjEsx-1ew5XHZKRS1k6-42" value="username text not null unique" style="shape=partialRectangle;overflow=hidden;connectable=0;fillColor=none;align=left;strokeColor=inherit;top=0;left=0;bottom=0;right=0;spacingLeft=6;" vertex="1" parent="fGjEsx-1ew5XHZKRS1k6-40">
          <mxGeometry x="30" width="272.6771653543307" height="30" as="geometry">
            <mxRectangle width="272.6771653543307" height="30" as="alternateBounds" />
          </mxGeometry>
        </mxCell>
        <mxCell id="fGjEsx-1ew5XHZKRS1k6-43" value="" style="shape=tableRow;horizontal=0;startSize=0;swimlaneHead=0;swimlaneBody=0;fillColor=none;collapsible=0;dropTarget=0;points=[[0,0.5],[1,0.5]];portConstraint=eastwest;strokeColor=inherit;top=0;left=0;right=0;bottom=0;" vertex="1" parent="fGjEsx-1ew5XHZKRS1k6-36">
          <mxGeometry y="90" width="302.6771653543307" height="30" as="geometry" />
        </mxCell>
        <mxCell id="fGjEsx-1ew5XHZKRS1k6-44" value="" style="shape=partialRectangle;overflow=hidden;connectable=0;fillColor=none;strokeColor=inherit;top=0;left=0;bottom=0;right=0;" vertex="1" parent="fGjEsx-1ew5XHZKRS1k6-43">
          <mxGeometry width="30" height="30" as="geometry">
            <mxRectangle width="30" height="30" as="alternateBounds" />
          </mxGeometry>
        </mxCell>
        <mxCell id="fGjEsx-1ew5XHZKRS1k6-45" value="email text not null unique" style="shape=partialRectangle;overflow=hidden;connectable=0;fillColor=none;align=left;strokeColor=inherit;top=0;left=0;bottom=0;right=0;spacingLeft=6;" vertex="1" parent="fGjEsx-1ew5XHZKRS1k6-43">
          <mxGeometry x="30" width="272.6771653543307" height="30" as="geometry">
            <mxRectangle width="272.6771653543307" height="30" as="alternateBounds" />
          </mxGeometry>
        </mxCell>
        <mxCell id="fGjEsx-1ew5XHZKRS1k6-46" value="" style="shape=tableRow;horizontal=0;startSize=0;swimlaneHead=0;swimlaneBody=0;fillColor=none;collapsible=0;dropTarget=0;points=[[0,0.5],[1,0.5]];portConstraint=eastwest;strokeColor=inherit;top=0;left=0;right=0;bottom=0;" vertex="1" parent="fGjEsx-1ew5XHZKRS1k6-36">
          <mxGeometry y="120" width="302.6771653543307" height="30" as="geometry" />
        </mxCell>
        <mxCell id="fGjEsx-1ew5XHZKRS1k6-47" value="" style="shape=partialRectangle;overflow=hidden;connectable=0;fillColor=none;strokeColor=inherit;top=0;left=0;bottom=0;right=0;" vertex="1" parent="fGjEsx-1ew5XHZKRS1k6-46">
          <mxGeometry width="30" height="30" as="geometry">
            <mxRectangle width="30" height="30" as="alternateBounds" />
          </mxGeometry>
        </mxCell>
        <mxCell id="fGjEsx-1ew5XHZKRS1k6-48" value="password text not null" style="shape=partialRectangle;overflow=hidden;connectable=0;fillColor=none;align=left;strokeColor=inherit;top=0;left=0;bottom=0;right=0;spacingLeft=6;" vertex="1" parent="fGjEsx-1ew5XHZKRS1k6-46">
          <mxGeometry x="30" width="272.6771653543307" height="30" as="geometry">
            <mxRectangle width="272.6771653543307" height="30" as="alternateBounds" />
          </mxGeometry>
        </mxCell>
        <mxCell id="fGjEsx-1ew5XHZKRS1k6-49" value="" style="shape=tableRow;horizontal=0;startSize=0;swimlaneHead=0;swimlaneBody=0;fillColor=none;collapsible=0;dropTarget=0;points=[[0,0.5],[1,0.5]];portConstraint=eastwest;strokeColor=inherit;top=0;left=0;right=0;bottom=0;" vertex="1" parent="fGjEsx-1ew5XHZKRS1k6-36">
          <mxGeometry y="150" width="302.6771653543307" height="30" as="geometry" />
        </mxCell>
        <mxCell id="fGjEsx-1ew5XHZKRS1k6-50" value="" style="shape=partialRectangle;overflow=hidden;connectable=0;fillColor=none;strokeColor=inherit;top=0;left=0;bottom=0;right=0;" vertex="1" parent="fGjEsx-1ew5XHZKRS1k6-49">
          <mxGeometry width="30" height="30" as="geometry">
            <mxRectangle width="30" height="30" as="alternateBounds" />
          </mxGeometry>
        </mxCell>
        <mxCell id="fGjEsx-1ew5XHZKRS1k6-51" value="created_at timestamp default current_timestamp" style="shape=partialRectangle;overflow=hidden;connectable=0;fillColor=none;align=left;strokeColor=inherit;top=0;left=0;bottom=0;right=0;spacingLeft=6;" vertex="1" parent="fGjEsx-1ew5XHZKRS1k6-49">
          <mxGeometry x="30" width="272.6771653543307" height="30" as="geometry">
            <mxRectangle width="272.6771653543307" height="30" as="alternateBounds" />
          </mxGeometry>
        </mxCell>
        <mxCell id="fGjEsx-1ew5XHZKRS1k6-52" style="edgeStyle=orthogonalEdgeStyle;rounded=0;orthogonalLoop=1;jettySize=auto;html=1;exitX=0;exitY=0.25;exitDx=0;exitDy=0;entryX=1;entryY=0.5;entryDx=0;entryDy=0;endArrow=none;startFill=0;" edge="1" parent="fGjEsx-1ew5XHZKRS1k6-197" source="fGjEsx-1ew5XHZKRS1k6-56" target="fGjEsx-1ew5XHZKRS1k6-37">
          <mxGeometry relative="1" as="geometry" />
        </mxCell>
        <mxCell id="fGjEsx-1ew5XHZKRS1k6-53" value="mc" style="edgeLabel;html=1;align=center;verticalAlign=middle;resizable=0;points=[];" vertex="1" connectable="0" parent="fGjEsx-1ew5XHZKRS1k6-52">
          <mxGeometry x="-0.7812" relative="1" as="geometry">
            <mxPoint as="offset" />
          </mxGeometry>
        </mxCell>
        <mxCell id="fGjEsx-1ew5XHZKRS1k6-54" style="edgeStyle=orthogonalEdgeStyle;rounded=0;orthogonalLoop=1;jettySize=auto;html=1;exitX=0;exitY=0.5;exitDx=0;exitDy=0;entryX=1;entryY=0.5;entryDx=0;entryDy=0;endArrow=none;startFill=0;" edge="1" parent="fGjEsx-1ew5XHZKRS1k6-197" source="fGjEsx-1ew5XHZKRS1k6-56" target="fGjEsx-1ew5XHZKRS1k6-37">
          <mxGeometry relative="1" as="geometry" />
        </mxCell>
        <mxCell id="fGjEsx-1ew5XHZKRS1k6-55" value="mc" style="edgeLabel;html=1;align=center;verticalAlign=middle;resizable=0;points=[];" vertex="1" connectable="0" parent="fGjEsx-1ew5XHZKRS1k6-54">
          <mxGeometry x="-0.807" relative="1" as="geometry">
            <mxPoint as="offset" />
          </mxGeometry>
        </mxCell>
        <mxCell id="fGjEsx-1ew5XHZKRS1k6-56" value="follows" style="shape=table;startSize=30;container=1;collapsible=1;childLayout=tableLayout;fixedRows=1;rowLines=0;fontStyle=1;align=center;resizeLast=1;" vertex="1" parent="fGjEsx-1ew5XHZKRS1k6-197">
          <mxGeometry x="877.7637795275591" y="666.4772727272727" width="312.4409448818898" height="120" as="geometry" />
        </mxCell>
        <mxCell id="fGjEsx-1ew5XHZKRS1k6-57" value="" style="shape=tableRow;horizontal=0;startSize=0;swimlaneHead=0;swimlaneBody=0;fillColor=none;collapsible=0;dropTarget=0;points=[[0,0.5],[1,0.5]];portConstraint=eastwest;strokeColor=inherit;top=0;left=0;right=0;bottom=0;" vertex="1" parent="fGjEsx-1ew5XHZKRS1k6-56">
          <mxGeometry y="30" width="312.4409448818898" height="30" as="geometry" />
        </mxCell>
        <mxCell id="fGjEsx-1ew5XHZKRS1k6-58" value="" style="shape=partialRectangle;overflow=hidden;connectable=0;fillColor=none;strokeColor=inherit;top=0;left=0;bottom=0;right=0;" vertex="1" parent="fGjEsx-1ew5XHZKRS1k6-57">
          <mxGeometry width="30" height="30" as="geometry">
            <mxRectangle width="30" height="30" as="alternateBounds" />
          </mxGeometry>
        </mxCell>
        <mxCell id="fGjEsx-1ew5XHZKRS1k6-59" value="" style="shape=partialRectangle;overflow=hidden;connectable=0;fillColor=none;align=left;strokeColor=inherit;top=0;left=0;bottom=0;right=0;spacingLeft=6;" vertex="1" parent="fGjEsx-1ew5XHZKRS1k6-57">
          <mxGeometry x="30" width="282.4409448818898" height="30" as="geometry">
            <mxRectangle width="282.4409448818898" height="30" as="alternateBounds" />
          </mxGeometry>
        </mxCell>
        <mxCell id="fGjEsx-1ew5XHZKRS1k6-60" value="" style="shape=tableRow;horizontal=0;startSize=0;swimlaneHead=0;swimlaneBody=0;fillColor=none;collapsible=0;dropTarget=0;points=[[0,0.5],[1,0.5]];portConstraint=eastwest;strokeColor=inherit;top=0;left=0;right=0;bottom=0;" vertex="1" parent="fGjEsx-1ew5XHZKRS1k6-56">
          <mxGeometry y="60" width="312.4409448818898" height="30" as="geometry" />
        </mxCell>
        <mxCell id="fGjEsx-1ew5XHZKRS1k6-61" value="" style="shape=partialRectangle;overflow=hidden;connectable=0;fillColor=none;strokeColor=inherit;top=0;left=0;bottom=0;right=0;" vertex="1" parent="fGjEsx-1ew5XHZKRS1k6-60">
          <mxGeometry width="30" height="30" as="geometry">
            <mxRectangle width="30" height="30" as="alternateBounds" />
          </mxGeometry>
        </mxCell>
        <mxCell id="fGjEsx-1ew5XHZKRS1k6-62" value="" style="shape=partialRectangle;overflow=hidden;connectable=0;fillColor=none;align=left;strokeColor=inherit;top=0;left=0;bottom=0;right=0;spacingLeft=6;" vertex="1" parent="fGjEsx-1ew5XHZKRS1k6-60">
          <mxGeometry x="30" width="282.4409448818898" height="30" as="geometry">
            <mxRectangle width="282.4409448818898" height="30" as="alternateBounds" />
          </mxGeometry>
        </mxCell>
        <mxCell id="fGjEsx-1ew5XHZKRS1k6-63" value="" style="shape=tableRow;horizontal=0;startSize=0;swimlaneHead=0;swimlaneBody=0;fillColor=none;collapsible=0;dropTarget=0;points=[[0,0.5],[1,0.5]];portConstraint=eastwest;strokeColor=inherit;top=0;left=0;right=0;bottom=0;" vertex="1" parent="fGjEsx-1ew5XHZKRS1k6-56">
          <mxGeometry y="90" width="312.4409448818898" height="30" as="geometry" />
        </mxCell>
        <mxCell id="fGjEsx-1ew5XHZKRS1k6-64" value="" style="shape=partialRectangle;overflow=hidden;connectable=0;fillColor=none;strokeColor=inherit;top=0;left=0;bottom=0;right=0;" vertex="1" parent="fGjEsx-1ew5XHZKRS1k6-63">
          <mxGeometry width="30" height="30" as="geometry">
            <mxRectangle width="30" height="30" as="alternateBounds" />
          </mxGeometry>
        </mxCell>
        <mxCell id="fGjEsx-1ew5XHZKRS1k6-65" value="created_at timestamp default current_timestamp" style="shape=partialRectangle;overflow=hidden;connectable=0;fillColor=none;align=left;strokeColor=inherit;top=0;left=0;bottom=0;right=0;spacingLeft=6;" vertex="1" parent="fGjEsx-1ew5XHZKRS1k6-63">
          <mxGeometry x="30" width="282.4409448818898" height="30" as="geometry">
            <mxRectangle width="282.4409448818898" height="30" as="alternateBounds" />
          </mxGeometry>
        </mxCell>
        <mxCell id="fGjEsx-1ew5XHZKRS1k6-66" value="decks" style="shape=table;startSize=30;container=1;collapsible=1;childLayout=tableLayout;fixedRows=1;rowLines=0;fontStyle=1;align=center;resizeLast=1;" vertex="1" parent="fGjEsx-1ew5XHZKRS1k6-197">
          <mxGeometry x="475.496062992126" y="202.8409090909091" width="312.4409448818898" height="210" as="geometry" />
        </mxCell>
        <mxCell id="fGjEsx-1ew5XHZKRS1k6-67" value="" style="shape=tableRow;horizontal=0;startSize=0;swimlaneHead=0;swimlaneBody=0;fillColor=none;collapsible=0;dropTarget=0;points=[[0,0.5],[1,0.5]];portConstraint=eastwest;strokeColor=inherit;top=0;left=0;right=0;bottom=1;" vertex="1" parent="fGjEsx-1ew5XHZKRS1k6-66">
          <mxGeometry y="30" width="312.4409448818898" height="30" as="geometry" />
        </mxCell>
        <mxCell id="fGjEsx-1ew5XHZKRS1k6-68" value="PK" style="shape=partialRectangle;overflow=hidden;connectable=0;fillColor=none;strokeColor=inherit;top=0;left=0;bottom=0;right=0;fontStyle=1;" vertex="1" parent="fGjEsx-1ew5XHZKRS1k6-67">
          <mxGeometry width="30" height="30" as="geometry">
            <mxRectangle width="30" height="30" as="alternateBounds" />
          </mxGeometry>
        </mxCell>
        <mxCell id="fGjEsx-1ew5XHZKRS1k6-69" value="id bigint " style="shape=partialRectangle;overflow=hidden;connectable=0;fillColor=none;align=left;strokeColor=inherit;top=0;left=0;bottom=0;right=0;spacingLeft=6;fontStyle=5;" vertex="1" parent="fGjEsx-1ew5XHZKRS1k6-67">
          <mxGeometry x="30" width="282.4409448818898" height="30" as="geometry">
            <mxRectangle width="282.4409448818898" height="30" as="alternateBounds" />
          </mxGeometry>
        </mxCell>
        <mxCell id="fGjEsx-1ew5XHZKRS1k6-70" value="" style="shape=tableRow;horizontal=0;startSize=0;swimlaneHead=0;swimlaneBody=0;fillColor=none;collapsible=0;dropTarget=0;points=[[0,0.5],[1,0.5]];portConstraint=eastwest;strokeColor=inherit;top=0;left=0;right=0;bottom=0;" vertex="1" parent="fGjEsx-1ew5XHZKRS1k6-66">
          <mxGeometry y="60" width="312.4409448818898" height="30" as="geometry" />
        </mxCell>
        <mxCell id="fGjEsx-1ew5XHZKRS1k6-71" value="" style="shape=partialRectangle;overflow=hidden;connectable=0;fillColor=none;strokeColor=inherit;top=0;left=0;bottom=0;right=0;" vertex="1" parent="fGjEsx-1ew5XHZKRS1k6-70">
          <mxGeometry width="30" height="30" as="geometry">
            <mxRectangle width="30" height="30" as="alternateBounds" />
          </mxGeometry>
        </mxCell>
        <mxCell id="fGjEsx-1ew5XHZKRS1k6-72" value="title text not null" style="shape=partialRectangle;overflow=hidden;connectable=0;fillColor=none;align=left;strokeColor=inherit;top=0;left=0;bottom=0;right=0;spacingLeft=6;" vertex="1" parent="fGjEsx-1ew5XHZKRS1k6-70">
          <mxGeometry x="30" width="282.4409448818898" height="30" as="geometry">
            <mxRectangle width="282.4409448818898" height="30" as="alternateBounds" />
          </mxGeometry>
        </mxCell>
        <mxCell id="fGjEsx-1ew5XHZKRS1k6-73" value="" style="shape=tableRow;horizontal=0;startSize=0;swimlaneHead=0;swimlaneBody=0;fillColor=none;collapsible=0;dropTarget=0;points=[[0,0.5],[1,0.5]];portConstraint=eastwest;strokeColor=inherit;top=0;left=0;right=0;bottom=0;" vertex="1" parent="fGjEsx-1ew5XHZKRS1k6-66">
          <mxGeometry y="90" width="312.4409448818898" height="30" as="geometry" />
        </mxCell>
        <mxCell id="fGjEsx-1ew5XHZKRS1k6-74" value="" style="shape=partialRectangle;overflow=hidden;connectable=0;fillColor=none;strokeColor=inherit;top=0;left=0;bottom=0;right=0;" vertex="1" parent="fGjEsx-1ew5XHZKRS1k6-73">
          <mxGeometry width="30" height="30" as="geometry">
            <mxRectangle width="30" height="30" as="alternateBounds" />
          </mxGeometry>
        </mxCell>
        <mxCell id="fGjEsx-1ew5XHZKRS1k6-75" value="alt text" style="shape=partialRectangle;overflow=hidden;connectable=0;fillColor=none;align=left;strokeColor=inherit;top=0;left=0;bottom=0;right=0;spacingLeft=6;" vertex="1" parent="fGjEsx-1ew5XHZKRS1k6-73">
          <mxGeometry x="30" width="282.4409448818898" height="30" as="geometry">
            <mxRectangle width="282.4409448818898" height="30" as="alternateBounds" />
          </mxGeometry>
        </mxCell>
        <mxCell id="fGjEsx-1ew5XHZKRS1k6-76" value="" style="shape=tableRow;horizontal=0;startSize=0;swimlaneHead=0;swimlaneBody=0;fillColor=none;collapsible=0;dropTarget=0;points=[[0,0.5],[1,0.5]];portConstraint=eastwest;strokeColor=inherit;top=0;left=0;right=0;bottom=0;" vertex="1" parent="fGjEsx-1ew5XHZKRS1k6-66">
          <mxGeometry y="120" width="312.4409448818898" height="30" as="geometry" />
        </mxCell>
        <mxCell id="fGjEsx-1ew5XHZKRS1k6-77" value="" style="shape=partialRectangle;overflow=hidden;connectable=0;fillColor=none;strokeColor=inherit;top=0;left=0;bottom=0;right=0;" vertex="1" parent="fGjEsx-1ew5XHZKRS1k6-76">
          <mxGeometry width="30" height="30" as="geometry">
            <mxRectangle width="30" height="30" as="alternateBounds" />
          </mxGeometry>
        </mxCell>
        <mxCell id="fGjEsx-1ew5XHZKRS1k6-78" value="is_private boolean not null default true" style="shape=partialRectangle;overflow=hidden;connectable=0;fillColor=none;align=left;strokeColor=inherit;top=0;left=0;bottom=0;right=0;spacingLeft=6;" vertex="1" parent="fGjEsx-1ew5XHZKRS1k6-76">
          <mxGeometry x="30" width="282.4409448818898" height="30" as="geometry">
            <mxRectangle width="282.4409448818898" height="30" as="alternateBounds" />
          </mxGeometry>
        </mxCell>
        <mxCell id="fGjEsx-1ew5XHZKRS1k6-79" value="" style="shape=tableRow;horizontal=0;startSize=0;swimlaneHead=0;swimlaneBody=0;fillColor=none;collapsible=0;dropTarget=0;points=[[0,0.5],[1,0.5]];portConstraint=eastwest;strokeColor=inherit;top=0;left=0;right=0;bottom=0;" vertex="1" parent="fGjEsx-1ew5XHZKRS1k6-66">
          <mxGeometry y="150" width="312.4409448818898" height="30" as="geometry" />
        </mxCell>
        <mxCell id="fGjEsx-1ew5XHZKRS1k6-80" value="" style="shape=partialRectangle;overflow=hidden;connectable=0;fillColor=none;strokeColor=inherit;top=0;left=0;bottom=0;right=0;" vertex="1" parent="fGjEsx-1ew5XHZKRS1k6-79">
          <mxGeometry width="30" height="30" as="geometry">
            <mxRectangle width="30" height="30" as="alternateBounds" />
          </mxGeometry>
        </mxCell>
        <mxCell id="fGjEsx-1ew5XHZKRS1k6-81" value="creator_id bigint not null" style="shape=partialRectangle;overflow=hidden;connectable=0;fillColor=none;align=left;strokeColor=inherit;top=0;left=0;bottom=0;right=0;spacingLeft=6;" vertex="1" parent="fGjEsx-1ew5XHZKRS1k6-79">
          <mxGeometry x="30" width="282.4409448818898" height="30" as="geometry">
            <mxRectangle width="282.4409448818898" height="30" as="alternateBounds" />
          </mxGeometry>
        </mxCell>
        <mxCell id="fGjEsx-1ew5XHZKRS1k6-82" value="" style="shape=tableRow;horizontal=0;startSize=0;swimlaneHead=0;swimlaneBody=0;fillColor=none;collapsible=0;dropTarget=0;points=[[0,0.5],[1,0.5]];portConstraint=eastwest;strokeColor=inherit;top=0;left=0;right=0;bottom=0;" vertex="1" parent="fGjEsx-1ew5XHZKRS1k6-66">
          <mxGeometry y="180" width="312.4409448818898" height="30" as="geometry" />
        </mxCell>
        <mxCell id="fGjEsx-1ew5XHZKRS1k6-83" value="" style="shape=partialRectangle;overflow=hidden;connectable=0;fillColor=none;strokeColor=inherit;top=0;left=0;bottom=0;right=0;" vertex="1" parent="fGjEsx-1ew5XHZKRS1k6-82">
          <mxGeometry width="30" height="30" as="geometry">
            <mxRectangle width="30" height="30" as="alternateBounds" />
          </mxGeometry>
        </mxCell>
        <mxCell id="fGjEsx-1ew5XHZKRS1k6-84" value="created_at timestamp default current_timestamp" style="shape=partialRectangle;overflow=hidden;connectable=0;fillColor=none;align=left;strokeColor=inherit;top=0;left=0;bottom=0;right=0;spacingLeft=6;" vertex="1" parent="fGjEsx-1ew5XHZKRS1k6-82">
          <mxGeometry x="30" width="282.4409448818898" height="30" as="geometry">
            <mxRectangle width="282.4409448818898" height="30" as="alternateBounds" />
          </mxGeometry>
        </mxCell>
        <mxCell id="fGjEsx-1ew5XHZKRS1k6-85" value="collaborators" style="shape=table;startSize=30;container=1;collapsible=1;childLayout=tableLayout;fixedRows=1;rowLines=0;fontStyle=1;align=center;resizeLast=1;" vertex="1" parent="fGjEsx-1ew5XHZKRS1k6-197">
          <mxGeometry x="877.7637795275591" y="318.75" width="312.4409448818898" height="120" as="geometry" />
        </mxCell>
        <mxCell id="fGjEsx-1ew5XHZKRS1k6-86" value="" style="shape=tableRow;horizontal=0;startSize=0;swimlaneHead=0;swimlaneBody=0;fillColor=none;collapsible=0;dropTarget=0;points=[[0,0.5],[1,0.5]];portConstraint=eastwest;strokeColor=inherit;top=0;left=0;right=0;bottom=1;" vertex="1" parent="fGjEsx-1ew5XHZKRS1k6-85">
          <mxGeometry y="30" width="312.4409448818898" height="30" as="geometry" />
        </mxCell>
        <mxCell id="fGjEsx-1ew5XHZKRS1k6-87" value="PK" style="shape=partialRectangle;overflow=hidden;connectable=0;fillColor=none;strokeColor=inherit;top=0;left=0;bottom=0;right=0;fontStyle=1;" vertex="1" parent="fGjEsx-1ew5XHZKRS1k6-86">
          <mxGeometry width="30" height="30" as="geometry">
            <mxRectangle width="30" height="30" as="alternateBounds" />
          </mxGeometry>
        </mxCell>
        <mxCell id="fGjEsx-1ew5XHZKRS1k6-88" value="deck_id bigint not null" style="shape=partialRectangle;overflow=hidden;connectable=0;fillColor=none;align=left;strokeColor=inherit;top=0;left=0;bottom=0;right=0;spacingLeft=6;fontStyle=5;" vertex="1" parent="fGjEsx-1ew5XHZKRS1k6-86">
          <mxGeometry x="30" width="282.4409448818898" height="30" as="geometry">
            <mxRectangle width="282.4409448818898" height="30" as="alternateBounds" />
          </mxGeometry>
        </mxCell>
        <mxCell id="fGjEsx-1ew5XHZKRS1k6-89" value="" style="shape=tableRow;horizontal=0;startSize=0;swimlaneHead=0;swimlaneBody=0;fillColor=none;collapsible=0;dropTarget=0;points=[[0,0.5],[1,0.5]];portConstraint=eastwest;strokeColor=inherit;top=0;left=0;right=0;bottom=0;" vertex="1" parent="fGjEsx-1ew5XHZKRS1k6-85">
          <mxGeometry y="60" width="312.4409448818898" height="30" as="geometry" />
        </mxCell>
        <mxCell id="fGjEsx-1ew5XHZKRS1k6-90" value="" style="shape=partialRectangle;overflow=hidden;connectable=0;fillColor=none;strokeColor=inherit;top=0;left=0;bottom=0;right=0;" vertex="1" parent="fGjEsx-1ew5XHZKRS1k6-89">
          <mxGeometry width="30" height="30" as="geometry">
            <mxRectangle width="30" height="30" as="alternateBounds" />
          </mxGeometry>
        </mxCell>
        <mxCell id="fGjEsx-1ew5XHZKRS1k6-91" value="" style="shape=partialRectangle;overflow=hidden;connectable=0;fillColor=none;align=left;strokeColor=inherit;top=0;left=0;bottom=0;right=0;spacingLeft=6;" vertex="1" parent="fGjEsx-1ew5XHZKRS1k6-89">
          <mxGeometry x="30" width="282.4409448818898" height="30" as="geometry">
            <mxRectangle width="282.4409448818898" height="30" as="alternateBounds" />
          </mxGeometry>
        </mxCell>
        <mxCell id="fGjEsx-1ew5XHZKRS1k6-92" value="" style="shape=tableRow;horizontal=0;startSize=0;swimlaneHead=0;swimlaneBody=0;fillColor=none;collapsible=0;dropTarget=0;points=[[0,0.5],[1,0.5]];portConstraint=eastwest;strokeColor=inherit;top=0;left=0;right=0;bottom=0;" vertex="1" parent="fGjEsx-1ew5XHZKRS1k6-85">
          <mxGeometry y="90" width="312.4409448818898" height="30" as="geometry" />
        </mxCell>
        <mxCell id="fGjEsx-1ew5XHZKRS1k6-93" value="" style="shape=partialRectangle;overflow=hidden;connectable=0;fillColor=none;strokeColor=inherit;top=0;left=0;bottom=0;right=0;" vertex="1" parent="fGjEsx-1ew5XHZKRS1k6-92">
          <mxGeometry width="30" height="30" as="geometry">
            <mxRectangle width="30" height="30" as="alternateBounds" />
          </mxGeometry>
        </mxCell>
        <mxCell id="fGjEsx-1ew5XHZKRS1k6-94" value="can_edit boolean not null default false" style="shape=partialRectangle;overflow=hidden;connectable=0;fillColor=none;align=left;strokeColor=inherit;top=0;left=0;bottom=0;right=0;spacingLeft=6;" vertex="1" parent="fGjEsx-1ew5XHZKRS1k6-92">
          <mxGeometry x="30" width="282.4409448818898" height="30" as="geometry">
            <mxRectangle width="282.4409448818898" height="30" as="alternateBounds" />
          </mxGeometry>
        </mxCell>
        <mxCell id="fGjEsx-1ew5XHZKRS1k6-95" value="deck_colors" style="shape=table;startSize=30;container=1;collapsible=1;childLayout=tableLayout;fixedRows=1;rowLines=0;fontStyle=1;align=center;resizeLast=1;" vertex="1" parent="fGjEsx-1ew5XHZKRS1k6-197">
          <mxGeometry x="877.7637795275591" y="48.29545454545455" width="312.4409448818898" height="120" as="geometry" />
        </mxCell>
        <mxCell id="fGjEsx-1ew5XHZKRS1k6-96" value="" style="shape=tableRow;horizontal=0;startSize=0;swimlaneHead=0;swimlaneBody=0;fillColor=none;collapsible=0;dropTarget=0;points=[[0,0.5],[1,0.5]];portConstraint=eastwest;strokeColor=inherit;top=0;left=0;right=0;bottom=1;" vertex="1" parent="fGjEsx-1ew5XHZKRS1k6-95">
          <mxGeometry y="30" width="312.4409448818898" height="30" as="geometry" />
        </mxCell>
        <mxCell id="fGjEsx-1ew5XHZKRS1k6-97" value="PK" style="shape=partialRectangle;overflow=hidden;connectable=0;fillColor=none;strokeColor=inherit;top=0;left=0;bottom=0;right=0;fontStyle=1;" vertex="1" parent="fGjEsx-1ew5XHZKRS1k6-96">
          <mxGeometry width="30" height="30" as="geometry">
            <mxRectangle width="30" height="30" as="alternateBounds" />
          </mxGeometry>
        </mxCell>
        <mxCell id="fGjEsx-1ew5XHZKRS1k6-98" value="deck_id bigint " style="shape=partialRectangle;overflow=hidden;connectable=0;fillColor=none;align=left;strokeColor=inherit;top=0;left=0;bottom=0;right=0;spacingLeft=6;fontStyle=5;" vertex="1" parent="fGjEsx-1ew5XHZKRS1k6-96">
          <mxGeometry x="30" width="282.4409448818898" height="30" as="geometry">
            <mxRectangle width="282.4409448818898" height="30" as="alternateBounds" />
          </mxGeometry>
        </mxCell>
        <mxCell id="fGjEsx-1ew5XHZKRS1k6-99" value="" style="shape=tableRow;horizontal=0;startSize=0;swimlaneHead=0;swimlaneBody=0;fillColor=none;collapsible=0;dropTarget=0;points=[[0,0.5],[1,0.5]];portConstraint=eastwest;strokeColor=inherit;top=0;left=0;right=0;bottom=0;" vertex="1" parent="fGjEsx-1ew5XHZKRS1k6-95">
          <mxGeometry y="60" width="312.4409448818898" height="30" as="geometry" />
        </mxCell>
        <mxCell id="fGjEsx-1ew5XHZKRS1k6-100" value="" style="shape=partialRectangle;overflow=hidden;connectable=0;fillColor=none;strokeColor=inherit;top=0;left=0;bottom=0;right=0;" vertex="1" parent="fGjEsx-1ew5XHZKRS1k6-99">
          <mxGeometry width="30" height="30" as="geometry">
            <mxRectangle width="30" height="30" as="alternateBounds" />
          </mxGeometry>
        </mxCell>
        <mxCell id="fGjEsx-1ew5XHZKRS1k6-101" value="start_color varchar(7) not null" style="shape=partialRectangle;overflow=hidden;connectable=0;fillColor=none;align=left;strokeColor=inherit;top=0;left=0;bottom=0;right=0;spacingLeft=6;" vertex="1" parent="fGjEsx-1ew5XHZKRS1k6-99">
          <mxGeometry x="30" width="282.4409448818898" height="30" as="geometry">
            <mxRectangle width="282.4409448818898" height="30" as="alternateBounds" />
          </mxGeometry>
        </mxCell>
        <mxCell id="fGjEsx-1ew5XHZKRS1k6-102" value="" style="shape=tableRow;horizontal=0;startSize=0;swimlaneHead=0;swimlaneBody=0;fillColor=none;collapsible=0;dropTarget=0;points=[[0,0.5],[1,0.5]];portConstraint=eastwest;strokeColor=inherit;top=0;left=0;right=0;bottom=0;" vertex="1" parent="fGjEsx-1ew5XHZKRS1k6-95">
          <mxGeometry y="90" width="312.4409448818898" height="30" as="geometry" />
        </mxCell>
        <mxCell id="fGjEsx-1ew5XHZKRS1k6-103" value="" style="shape=partialRectangle;overflow=hidden;connectable=0;fillColor=none;strokeColor=inherit;top=0;left=0;bottom=0;right=0;" vertex="1" parent="fGjEsx-1ew5XHZKRS1k6-102">
          <mxGeometry width="30" height="30" as="geometry">
            <mxRectangle width="30" height="30" as="alternateBounds" />
          </mxGeometry>
        </mxCell>
        <mxCell id="fGjEsx-1ew5XHZKRS1k6-104" value="end_color varchar(7) not null" style="shape=partialRectangle;overflow=hidden;connectable=0;fillColor=none;align=left;strokeColor=inherit;top=0;left=0;bottom=0;right=0;spacingLeft=6;" vertex="1" parent="fGjEsx-1ew5XHZKRS1k6-102">
          <mxGeometry x="30" width="282.4409448818898" height="30" as="geometry">
            <mxRectangle width="282.4409448818898" height="30" as="alternateBounds" />
          </mxGeometry>
        </mxCell>
        <mxCell id="fGjEsx-1ew5XHZKRS1k6-105" value="quiz_options" style="shape=table;startSize=30;container=1;collapsible=1;childLayout=tableLayout;fixedRows=1;rowLines=0;fontStyle=1;align=center;resizeLast=1;" vertex="1" parent="fGjEsx-1ew5XHZKRS1k6-197">
          <mxGeometry x="68.34645669291339" y="637.5" width="312.4409448818898" height="180" as="geometry" />
        </mxCell>
        <mxCell id="fGjEsx-1ew5XHZKRS1k6-106" value="" style="shape=tableRow;horizontal=0;startSize=0;swimlaneHead=0;swimlaneBody=0;fillColor=none;collapsible=0;dropTarget=0;points=[[0,0.5],[1,0.5]];portConstraint=eastwest;strokeColor=inherit;top=0;left=0;right=0;bottom=1;" vertex="1" parent="fGjEsx-1ew5XHZKRS1k6-105">
          <mxGeometry y="30" width="312.4409448818898" height="30" as="geometry" />
        </mxCell>
        <mxCell id="fGjEsx-1ew5XHZKRS1k6-107" value="PK" style="shape=partialRectangle;overflow=hidden;connectable=0;fillColor=none;strokeColor=inherit;top=0;left=0;bottom=0;right=0;fontStyle=1;" vertex="1" parent="fGjEsx-1ew5XHZKRS1k6-106">
          <mxGeometry width="30" height="30" as="geometry">
            <mxRectangle width="30" height="30" as="alternateBounds" />
          </mxGeometry>
        </mxCell>
        <mxCell id="fGjEsx-1ew5XHZKRS1k6-108" value="quiz_id bigint " style="shape=partialRectangle;overflow=hidden;connectable=0;fillColor=none;align=left;strokeColor=inherit;top=0;left=0;bottom=0;right=0;spacingLeft=6;fontStyle=5;" vertex="1" parent="fGjEsx-1ew5XHZKRS1k6-106">
          <mxGeometry x="30" width="282.4409448818898" height="30" as="geometry">
            <mxRectangle width="282.4409448818898" height="30" as="alternateBounds" />
          </mxGeometry>
        </mxCell>
        <mxCell id="fGjEsx-1ew5XHZKRS1k6-109" value="" style="shape=tableRow;horizontal=0;startSize=0;swimlaneHead=0;swimlaneBody=0;fillColor=none;collapsible=0;dropTarget=0;points=[[0,0.5],[1,0.5]];portConstraint=eastwest;strokeColor=inherit;top=0;left=0;right=0;bottom=0;" vertex="1" parent="fGjEsx-1ew5XHZKRS1k6-105">
          <mxGeometry y="60" width="312.4409448818898" height="30" as="geometry" />
        </mxCell>
        <mxCell id="fGjEsx-1ew5XHZKRS1k6-110" value="" style="shape=partialRectangle;overflow=hidden;connectable=0;fillColor=none;strokeColor=inherit;top=0;left=0;bottom=0;right=0;" vertex="1" parent="fGjEsx-1ew5XHZKRS1k6-109">
          <mxGeometry width="30" height="30" as="geometry">
            <mxRectangle width="30" height="30" as="alternateBounds" />
          </mxGeometry>
        </mxCell>
        <mxCell id="fGjEsx-1ew5XHZKRS1k6-111" value="first_option text not null" style="shape=partialRectangle;overflow=hidden;connectable=0;fillColor=none;align=left;strokeColor=inherit;top=0;left=0;bottom=0;right=0;spacingLeft=6;" vertex="1" parent="fGjEsx-1ew5XHZKRS1k6-109">
          <mxGeometry x="30" width="282.4409448818898" height="30" as="geometry">
            <mxRectangle width="282.4409448818898" height="30" as="alternateBounds" />
          </mxGeometry>
        </mxCell>
        <mxCell id="fGjEsx-1ew5XHZKRS1k6-112" value="" style="shape=tableRow;horizontal=0;startSize=0;swimlaneHead=0;swimlaneBody=0;fillColor=none;collapsible=0;dropTarget=0;points=[[0,0.5],[1,0.5]];portConstraint=eastwest;strokeColor=inherit;top=0;left=0;right=0;bottom=0;" vertex="1" parent="fGjEsx-1ew5XHZKRS1k6-105">
          <mxGeometry y="90" width="312.4409448818898" height="30" as="geometry" />
        </mxCell>
        <mxCell id="fGjEsx-1ew5XHZKRS1k6-113" value="" style="shape=partialRectangle;overflow=hidden;connectable=0;fillColor=none;strokeColor=inherit;top=0;left=0;bottom=0;right=0;" vertex="1" parent="fGjEsx-1ew5XHZKRS1k6-112">
          <mxGeometry width="30" height="30" as="geometry">
            <mxRectangle width="30" height="30" as="alternateBounds" />
          </mxGeometry>
        </mxCell>
        <mxCell id="fGjEsx-1ew5XHZKRS1k6-114" value="second_option text not null" style="shape=partialRectangle;overflow=hidden;connectable=0;fillColor=none;align=left;strokeColor=inherit;top=0;left=0;bottom=0;right=0;spacingLeft=6;" vertex="1" parent="fGjEsx-1ew5XHZKRS1k6-112">
          <mxGeometry x="30" width="282.4409448818898" height="30" as="geometry">
            <mxRectangle width="282.4409448818898" height="30" as="alternateBounds" />
          </mxGeometry>
        </mxCell>
        <mxCell id="fGjEsx-1ew5XHZKRS1k6-115" value="" style="shape=tableRow;horizontal=0;startSize=0;swimlaneHead=0;swimlaneBody=0;fillColor=none;collapsible=0;dropTarget=0;points=[[0,0.5],[1,0.5]];portConstraint=eastwest;strokeColor=inherit;top=0;left=0;right=0;bottom=0;" vertex="1" parent="fGjEsx-1ew5XHZKRS1k6-105">
          <mxGeometry y="120" width="312.4409448818898" height="30" as="geometry" />
        </mxCell>
        <mxCell id="fGjEsx-1ew5XHZKRS1k6-116" value="" style="shape=partialRectangle;overflow=hidden;connectable=0;fillColor=none;strokeColor=inherit;top=0;left=0;bottom=0;right=0;" vertex="1" parent="fGjEsx-1ew5XHZKRS1k6-115">
          <mxGeometry width="30" height="30" as="geometry">
            <mxRectangle width="30" height="30" as="alternateBounds" />
          </mxGeometry>
        </mxCell>
        <mxCell id="fGjEsx-1ew5XHZKRS1k6-117" value="third_option text not null" style="shape=partialRectangle;overflow=hidden;connectable=0;fillColor=none;align=left;strokeColor=inherit;top=0;left=0;bottom=0;right=0;spacingLeft=6;" vertex="1" parent="fGjEsx-1ew5XHZKRS1k6-115">
          <mxGeometry x="30" width="282.4409448818898" height="30" as="geometry">
            <mxRectangle width="282.4409448818898" height="30" as="alternateBounds" />
          </mxGeometry>
        </mxCell>
        <mxCell id="fGjEsx-1ew5XHZKRS1k6-118" value="" style="shape=tableRow;horizontal=0;startSize=0;swimlaneHead=0;swimlaneBody=0;fillColor=none;collapsible=0;dropTarget=0;points=[[0,0.5],[1,0.5]];portConstraint=eastwest;strokeColor=inherit;top=0;left=0;right=0;bottom=0;" vertex="1" parent="fGjEsx-1ew5XHZKRS1k6-105">
          <mxGeometry y="150" width="312.4409448818898" height="30" as="geometry" />
        </mxCell>
        <mxCell id="fGjEsx-1ew5XHZKRS1k6-119" value="" style="shape=partialRectangle;overflow=hidden;connectable=0;fillColor=none;strokeColor=inherit;top=0;left=0;bottom=0;right=0;" vertex="1" parent="fGjEsx-1ew5XHZKRS1k6-118">
          <mxGeometry width="30" height="30" as="geometry">
            <mxRectangle width="30" height="30" as="alternateBounds" />
          </mxGeometry>
        </mxCell>
        <mxCell id="fGjEsx-1ew5XHZKRS1k6-120" value="fourth_option text not null" style="shape=partialRectangle;overflow=hidden;connectable=0;fillColor=none;align=left;strokeColor=inherit;top=0;left=0;bottom=0;right=0;spacingLeft=6;" vertex="1" parent="fGjEsx-1ew5XHZKRS1k6-118">
          <mxGeometry x="30" width="282.4409448818898" height="30" as="geometry">
            <mxRectangle width="282.4409448818898" height="30" as="alternateBounds" />
          </mxGeometry>
        </mxCell>
        <mxCell id="fGjEsx-1ew5XHZKRS1k6-121" value="quiz" style="shape=table;startSize=30;container=1;collapsible=1;childLayout=tableLayout;fixedRows=1;rowLines=0;fontStyle=1;align=center;resizeLast=1;" vertex="1" parent="fGjEsx-1ew5XHZKRS1k6-197">
          <mxGeometry x="68.34645669291339" y="347.72727272727275" width="312.4409448818898" height="240" as="geometry" />
        </mxCell>
        <mxCell id="fGjEsx-1ew5XHZKRS1k6-122" value="" style="shape=tableRow;horizontal=0;startSize=0;swimlaneHead=0;swimlaneBody=0;fillColor=none;collapsible=0;dropTarget=0;points=[[0,0.5],[1,0.5]];portConstraint=eastwest;strokeColor=inherit;top=0;left=0;right=0;bottom=1;" vertex="1" parent="fGjEsx-1ew5XHZKRS1k6-121">
          <mxGeometry y="30" width="312.4409448818898" height="30" as="geometry" />
        </mxCell>
        <mxCell id="fGjEsx-1ew5XHZKRS1k6-123" value="PK" style="shape=partialRectangle;overflow=hidden;connectable=0;fillColor=none;strokeColor=inherit;top=0;left=0;bottom=0;right=0;fontStyle=1;" vertex="1" parent="fGjEsx-1ew5XHZKRS1k6-122">
          <mxGeometry width="30" height="30" as="geometry">
            <mxRectangle width="30" height="30" as="alternateBounds" />
          </mxGeometry>
        </mxCell>
        <mxCell id="fGjEsx-1ew5XHZKRS1k6-124" value="id bigint" style="shape=partialRectangle;overflow=hidden;connectable=0;fillColor=none;align=left;strokeColor=inherit;top=0;left=0;bottom=0;right=0;spacingLeft=6;fontStyle=5;" vertex="1" parent="fGjEsx-1ew5XHZKRS1k6-122">
          <mxGeometry x="30" width="282.4409448818898" height="30" as="geometry">
            <mxRectangle width="282.4409448818898" height="30" as="alternateBounds" />
          </mxGeometry>
        </mxCell>
        <mxCell id="fGjEsx-1ew5XHZKRS1k6-125" value="" style="shape=tableRow;horizontal=0;startSize=0;swimlaneHead=0;swimlaneBody=0;fillColor=none;collapsible=0;dropTarget=0;points=[[0,0.5],[1,0.5]];portConstraint=eastwest;strokeColor=inherit;top=0;left=0;right=0;bottom=0;" vertex="1" parent="fGjEsx-1ew5XHZKRS1k6-121">
          <mxGeometry y="60" width="312.4409448818898" height="30" as="geometry" />
        </mxCell>
        <mxCell id="fGjEsx-1ew5XHZKRS1k6-126" value="" style="shape=partialRectangle;overflow=hidden;connectable=0;fillColor=none;strokeColor=inherit;top=0;left=0;bottom=0;right=0;" vertex="1" parent="fGjEsx-1ew5XHZKRS1k6-125">
          <mxGeometry width="30" height="30" as="geometry">
            <mxRectangle width="30" height="30" as="alternateBounds" />
          </mxGeometry>
        </mxCell>
        <mxCell id="fGjEsx-1ew5XHZKRS1k6-127" value="deck_id bigint not null" style="shape=partialRectangle;overflow=hidden;connectable=0;fillColor=none;align=left;strokeColor=inherit;top=0;left=0;bottom=0;right=0;spacingLeft=6;" vertex="1" parent="fGjEsx-1ew5XHZKRS1k6-125">
          <mxGeometry x="30" width="282.4409448818898" height="30" as="geometry">
            <mxRectangle width="282.4409448818898" height="30" as="alternateBounds" />
          </mxGeometry>
        </mxCell>
        <mxCell id="fGjEsx-1ew5XHZKRS1k6-128" value="" style="shape=tableRow;horizontal=0;startSize=0;swimlaneHead=0;swimlaneBody=0;fillColor=none;collapsible=0;dropTarget=0;points=[[0,0.5],[1,0.5]];portConstraint=eastwest;strokeColor=inherit;top=0;left=0;right=0;bottom=0;" vertex="1" parent="fGjEsx-1ew5XHZKRS1k6-121">
          <mxGeometry y="90" width="312.4409448818898" height="30" as="geometry" />
        </mxCell>
        <mxCell id="fGjEsx-1ew5XHZKRS1k6-129" value="" style="shape=partialRectangle;overflow=hidden;connectable=0;fillColor=none;strokeColor=inherit;top=0;left=0;bottom=0;right=0;" vertex="1" parent="fGjEsx-1ew5XHZKRS1k6-128">
          <mxGeometry width="30" height="30" as="geometry">
            <mxRectangle width="30" height="30" as="alternateBounds" />
          </mxGeometry>
        </mxCell>
        <mxCell id="fGjEsx-1ew5XHZKRS1k6-130" value="question text not null" style="shape=partialRectangle;overflow=hidden;connectable=0;fillColor=none;align=left;strokeColor=inherit;top=0;left=0;bottom=0;right=0;spacingLeft=6;" vertex="1" parent="fGjEsx-1ew5XHZKRS1k6-128">
          <mxGeometry x="30" width="282.4409448818898" height="30" as="geometry">
            <mxRectangle width="282.4409448818898" height="30" as="alternateBounds" />
          </mxGeometry>
        </mxCell>
        <mxCell id="fGjEsx-1ew5XHZKRS1k6-131" value="" style="shape=tableRow;horizontal=0;startSize=0;swimlaneHead=0;swimlaneBody=0;fillColor=none;collapsible=0;dropTarget=0;points=[[0,0.5],[1,0.5]];portConstraint=eastwest;strokeColor=inherit;top=0;left=0;right=0;bottom=0;" vertex="1" parent="fGjEsx-1ew5XHZKRS1k6-121">
          <mxGeometry y="120" width="312.4409448818898" height="30" as="geometry" />
        </mxCell>
        <mxCell id="fGjEsx-1ew5XHZKRS1k6-132" value="" style="shape=partialRectangle;overflow=hidden;connectable=0;fillColor=none;strokeColor=inherit;top=0;left=0;bottom=0;right=0;" vertex="1" parent="fGjEsx-1ew5XHZKRS1k6-131">
          <mxGeometry width="30" height="30" as="geometry">
            <mxRectangle width="30" height="30" as="alternateBounds" />
          </mxGeometry>
        </mxCell>
        <mxCell id="fGjEsx-1ew5XHZKRS1k6-133" value="is_fav boolean default false" style="shape=partialRectangle;overflow=hidden;connectable=0;fillColor=none;align=left;strokeColor=inherit;top=0;left=0;bottom=0;right=0;spacingLeft=6;" vertex="1" parent="fGjEsx-1ew5XHZKRS1k6-131">
          <mxGeometry x="30" width="282.4409448818898" height="30" as="geometry">
            <mxRectangle width="282.4409448818898" height="30" as="alternateBounds" />
          </mxGeometry>
        </mxCell>
        <mxCell id="fGjEsx-1ew5XHZKRS1k6-134" value="" style="shape=tableRow;horizontal=0;startSize=0;swimlaneHead=0;swimlaneBody=0;fillColor=none;collapsible=0;dropTarget=0;points=[[0,0.5],[1,0.5]];portConstraint=eastwest;strokeColor=inherit;top=0;left=0;right=0;bottom=0;" vertex="1" parent="fGjEsx-1ew5XHZKRS1k6-121">
          <mxGeometry y="150" width="312.4409448818898" height="30" as="geometry" />
        </mxCell>
        <mxCell id="fGjEsx-1ew5XHZKRS1k6-135" value="" style="shape=partialRectangle;overflow=hidden;connectable=0;fillColor=none;strokeColor=inherit;top=0;left=0;bottom=0;right=0;" vertex="1" parent="fGjEsx-1ew5XHZKRS1k6-134">
          <mxGeometry width="30" height="30" as="geometry">
            <mxRectangle width="30" height="30" as="alternateBounds" />
          </mxGeometry>
        </mxCell>
        <mxCell id="fGjEsx-1ew5XHZKRS1k6-136" value="correct_answer smallint not null check (correct_answer between 1 and 4)" style="shape=partialRectangle;overflow=hidden;connectable=0;fillColor=none;align=left;strokeColor=inherit;top=0;left=0;bottom=0;right=0;spacingLeft=6;" vertex="1" parent="fGjEsx-1ew5XHZKRS1k6-134">
          <mxGeometry x="30" width="282.4409448818898" height="30" as="geometry">
            <mxRectangle width="282.4409448818898" height="30" as="alternateBounds" />
          </mxGeometry>
        </mxCell>
        <mxCell id="fGjEsx-1ew5XHZKRS1k6-137" value="" style="shape=tableRow;horizontal=0;startSize=0;swimlaneHead=0;swimlaneBody=0;fillColor=none;collapsible=0;dropTarget=0;points=[[0,0.5],[1,0.5]];portConstraint=eastwest;strokeColor=inherit;top=0;left=0;right=0;bottom=0;" vertex="1" parent="fGjEsx-1ew5XHZKRS1k6-121">
          <mxGeometry y="180" width="312.4409448818898" height="30" as="geometry" />
        </mxCell>
        <mxCell id="fGjEsx-1ew5XHZKRS1k6-138" value="" style="shape=partialRectangle;overflow=hidden;connectable=0;fillColor=none;strokeColor=inherit;top=0;left=0;bottom=0;right=0;" vertex="1" parent="fGjEsx-1ew5XHZKRS1k6-137">
          <mxGeometry width="30" height="30" as="geometry">
            <mxRectangle width="30" height="30" as="alternateBounds" />
          </mxGeometry>
        </mxCell>
        <mxCell id="fGjEsx-1ew5XHZKRS1k6-139" value="status varchar(20) default &#39;needs_practice&#39;" style="shape=partialRectangle;overflow=hidden;connectable=0;fillColor=none;align=left;strokeColor=inherit;top=0;left=0;bottom=0;right=0;spacingLeft=6;" vertex="1" parent="fGjEsx-1ew5XHZKRS1k6-137">
          <mxGeometry x="30" width="282.4409448818898" height="30" as="geometry">
            <mxRectangle width="282.4409448818898" height="30" as="alternateBounds" />
          </mxGeometry>
        </mxCell>
        <mxCell id="fGjEsx-1ew5XHZKRS1k6-140" value="" style="shape=tableRow;horizontal=0;startSize=0;swimlaneHead=0;swimlaneBody=0;fillColor=none;collapsible=0;dropTarget=0;points=[[0,0.5],[1,0.5]];portConstraint=eastwest;strokeColor=inherit;top=0;left=0;right=0;bottom=0;" vertex="1" parent="fGjEsx-1ew5XHZKRS1k6-121">
          <mxGeometry y="210" width="312.4409448818898" height="30" as="geometry" />
        </mxCell>
        <mxCell id="fGjEsx-1ew5XHZKRS1k6-141" value="" style="shape=partialRectangle;overflow=hidden;connectable=0;fillColor=none;strokeColor=inherit;top=0;left=0;bottom=0;right=0;" vertex="1" parent="fGjEsx-1ew5XHZKRS1k6-140">
          <mxGeometry width="30" height="30" as="geometry">
            <mxRectangle width="30" height="30" as="alternateBounds" />
          </mxGeometry>
        </mxCell>
        <mxCell id="fGjEsx-1ew5XHZKRS1k6-142" value="created_at timestamp default current_timestamp" style="shape=partialRectangle;overflow=hidden;connectable=0;fillColor=none;align=left;strokeColor=inherit;top=0;left=0;bottom=0;right=0;spacingLeft=6;" vertex="1" parent="fGjEsx-1ew5XHZKRS1k6-140">
          <mxGeometry x="30" width="282.4409448818898" height="30" as="geometry">
            <mxRectangle width="282.4409448818898" height="30" as="alternateBounds" />
          </mxGeometry>
        </mxCell>
        <mxCell id="fGjEsx-1ew5XHZKRS1k6-143" value="cards" style="shape=table;startSize=30;container=1;collapsible=1;childLayout=tableLayout;fixedRows=1;rowLines=0;fontStyle=1;align=center;resizeLast=1;" vertex="1" parent="fGjEsx-1ew5XHZKRS1k6-197">
          <mxGeometry x="68.34645669291339" y="48.29545454545455" width="312.4409448818898" height="240" as="geometry" />
        </mxCell>
        <mxCell id="fGjEsx-1ew5XHZKRS1k6-144" value="" style="shape=tableRow;horizontal=0;startSize=0;swimlaneHead=0;swimlaneBody=0;fillColor=none;collapsible=0;dropTarget=0;points=[[0,0.5],[1,0.5]];portConstraint=eastwest;strokeColor=inherit;top=0;left=0;right=0;bottom=1;" vertex="1" parent="fGjEsx-1ew5XHZKRS1k6-143">
          <mxGeometry y="30" width="312.4409448818898" height="30" as="geometry" />
        </mxCell>
        <mxCell id="fGjEsx-1ew5XHZKRS1k6-145" value="PK" style="shape=partialRectangle;overflow=hidden;connectable=0;fillColor=none;strokeColor=inherit;top=0;left=0;bottom=0;right=0;fontStyle=1;" vertex="1" parent="fGjEsx-1ew5XHZKRS1k6-144">
          <mxGeometry width="30" height="30" as="geometry">
            <mxRectangle width="30" height="30" as="alternateBounds" />
          </mxGeometry>
        </mxCell>
        <mxCell id="fGjEsx-1ew5XHZKRS1k6-146" value="id bigint " style="shape=partialRectangle;overflow=hidden;connectable=0;fillColor=none;align=left;strokeColor=inherit;top=0;left=0;bottom=0;right=0;spacingLeft=6;fontStyle=5;" vertex="1" parent="fGjEsx-1ew5XHZKRS1k6-144">
          <mxGeometry x="30" width="282.4409448818898" height="30" as="geometry">
            <mxRectangle width="282.4409448818898" height="30" as="alternateBounds" />
          </mxGeometry>
        </mxCell>
        <mxCell id="fGjEsx-1ew5XHZKRS1k6-147" value="" style="shape=tableRow;horizontal=0;startSize=0;swimlaneHead=0;swimlaneBody=0;fillColor=none;collapsible=0;dropTarget=0;points=[[0,0.5],[1,0.5]];portConstraint=eastwest;strokeColor=inherit;top=0;left=0;right=0;bottom=0;" vertex="1" parent="fGjEsx-1ew5XHZKRS1k6-143">
          <mxGeometry y="60" width="312.4409448818898" height="30" as="geometry" />
        </mxCell>
        <mxCell id="fGjEsx-1ew5XHZKRS1k6-148" value="" style="shape=partialRectangle;overflow=hidden;connectable=0;fillColor=none;strokeColor=inherit;top=0;left=0;bottom=0;right=0;" vertex="1" parent="fGjEsx-1ew5XHZKRS1k6-147">
          <mxGeometry width="30" height="30" as="geometry">
            <mxRectangle width="30" height="30" as="alternateBounds" />
          </mxGeometry>
        </mxCell>
        <mxCell id="fGjEsx-1ew5XHZKRS1k6-149" value="deck_id bigint not null" style="shape=partialRectangle;overflow=hidden;connectable=0;fillColor=none;align=left;strokeColor=inherit;top=0;left=0;bottom=0;right=0;spacingLeft=6;" vertex="1" parent="fGjEsx-1ew5XHZKRS1k6-147">
          <mxGeometry x="30" width="282.4409448818898" height="30" as="geometry">
            <mxRectangle width="282.4409448818898" height="30" as="alternateBounds" />
          </mxGeometry>
        </mxCell>
        <mxCell id="fGjEsx-1ew5XHZKRS1k6-150" value="" style="shape=tableRow;horizontal=0;startSize=0;swimlaneHead=0;swimlaneBody=0;fillColor=none;collapsible=0;dropTarget=0;points=[[0,0.5],[1,0.5]];portConstraint=eastwest;strokeColor=inherit;top=0;left=0;right=0;bottom=0;" vertex="1" parent="fGjEsx-1ew5XHZKRS1k6-143">
          <mxGeometry y="90" width="312.4409448818898" height="30" as="geometry" />
        </mxCell>
        <mxCell id="fGjEsx-1ew5XHZKRS1k6-151" value="" style="shape=partialRectangle;overflow=hidden;connectable=0;fillColor=none;strokeColor=inherit;top=0;left=0;bottom=0;right=0;" vertex="1" parent="fGjEsx-1ew5XHZKRS1k6-150">
          <mxGeometry width="30" height="30" as="geometry">
            <mxRectangle width="30" height="30" as="alternateBounds" />
          </mxGeometry>
        </mxCell>
        <mxCell id="fGjEsx-1ew5XHZKRS1k6-152" value="question text not null" style="shape=partialRectangle;overflow=hidden;connectable=0;fillColor=none;align=left;strokeColor=inherit;top=0;left=0;bottom=0;right=0;spacingLeft=6;" vertex="1" parent="fGjEsx-1ew5XHZKRS1k6-150">
          <mxGeometry x="30" width="282.4409448818898" height="30" as="geometry">
            <mxRectangle width="282.4409448818898" height="30" as="alternateBounds" />
          </mxGeometry>
        </mxCell>
        <mxCell id="fGjEsx-1ew5XHZKRS1k6-153" value="" style="shape=tableRow;horizontal=0;startSize=0;swimlaneHead=0;swimlaneBody=0;fillColor=none;collapsible=0;dropTarget=0;points=[[0,0.5],[1,0.5]];portConstraint=eastwest;strokeColor=inherit;top=0;left=0;right=0;bottom=0;" vertex="1" parent="fGjEsx-1ew5XHZKRS1k6-143">
          <mxGeometry y="120" width="312.4409448818898" height="30" as="geometry" />
        </mxCell>
        <mxCell id="fGjEsx-1ew5XHZKRS1k6-154" value="" style="shape=partialRectangle;overflow=hidden;connectable=0;fillColor=none;strokeColor=inherit;top=0;left=0;bottom=0;right=0;" vertex="1" parent="fGjEsx-1ew5XHZKRS1k6-153">
          <mxGeometry width="30" height="30" as="geometry">
            <mxRectangle width="30" height="30" as="alternateBounds" />
          </mxGeometry>
        </mxCell>
        <mxCell id="fGjEsx-1ew5XHZKRS1k6-155" value="answer text not null" style="shape=partialRectangle;overflow=hidden;connectable=0;fillColor=none;align=left;strokeColor=inherit;top=0;left=0;bottom=0;right=0;spacingLeft=6;" vertex="1" parent="fGjEsx-1ew5XHZKRS1k6-153">
          <mxGeometry x="30" width="282.4409448818898" height="30" as="geometry">
            <mxRectangle width="282.4409448818898" height="30" as="alternateBounds" />
          </mxGeometry>
        </mxCell>
        <mxCell id="fGjEsx-1ew5XHZKRS1k6-156" value="" style="shape=tableRow;horizontal=0;startSize=0;swimlaneHead=0;swimlaneBody=0;fillColor=none;collapsible=0;dropTarget=0;points=[[0,0.5],[1,0.5]];portConstraint=eastwest;strokeColor=inherit;top=0;left=0;right=0;bottom=0;" vertex="1" parent="fGjEsx-1ew5XHZKRS1k6-143">
          <mxGeometry y="150" width="312.4409448818898" height="30" as="geometry" />
        </mxCell>
        <mxCell id="fGjEsx-1ew5XHZKRS1k6-157" value="" style="shape=partialRectangle;overflow=hidden;connectable=0;fillColor=none;strokeColor=inherit;top=0;left=0;bottom=0;right=0;" vertex="1" parent="fGjEsx-1ew5XHZKRS1k6-156">
          <mxGeometry width="30" height="30" as="geometry">
            <mxRectangle width="30" height="30" as="alternateBounds" />
          </mxGeometry>
        </mxCell>
        <mxCell id="fGjEsx-1ew5XHZKRS1k6-158" value="is_fav boolean default false" style="shape=partialRectangle;overflow=hidden;connectable=0;fillColor=none;align=left;strokeColor=inherit;top=0;left=0;bottom=0;right=0;spacingLeft=6;" vertex="1" parent="fGjEsx-1ew5XHZKRS1k6-156">
          <mxGeometry x="30" width="282.4409448818898" height="30" as="geometry">
            <mxRectangle width="282.4409448818898" height="30" as="alternateBounds" />
          </mxGeometry>
        </mxCell>
        <mxCell id="fGjEsx-1ew5XHZKRS1k6-159" value="" style="shape=tableRow;horizontal=0;startSize=0;swimlaneHead=0;swimlaneBody=0;fillColor=none;collapsible=0;dropTarget=0;points=[[0,0.5],[1,0.5]];portConstraint=eastwest;strokeColor=inherit;top=0;left=0;right=0;bottom=0;" vertex="1" parent="fGjEsx-1ew5XHZKRS1k6-143">
          <mxGeometry y="180" width="312.4409448818898" height="30" as="geometry" />
        </mxCell>
        <mxCell id="fGjEsx-1ew5XHZKRS1k6-160" value="" style="shape=partialRectangle;overflow=hidden;connectable=0;fillColor=none;strokeColor=inherit;top=0;left=0;bottom=0;right=0;" vertex="1" parent="fGjEsx-1ew5XHZKRS1k6-159">
          <mxGeometry width="30" height="30" as="geometry">
            <mxRectangle width="30" height="30" as="alternateBounds" />
          </mxGeometry>
        </mxCell>
        <mxCell id="fGjEsx-1ew5XHZKRS1k6-161" value="status varchar(20) default &#39;needs_practice&#39;" style="shape=partialRectangle;overflow=hidden;connectable=0;fillColor=none;align=left;strokeColor=inherit;top=0;left=0;bottom=0;right=0;spacingLeft=6;" vertex="1" parent="fGjEsx-1ew5XHZKRS1k6-159">
          <mxGeometry x="30" width="282.4409448818898" height="30" as="geometry">
            <mxRectangle width="282.4409448818898" height="30" as="alternateBounds" />
          </mxGeometry>
        </mxCell>
        <mxCell id="fGjEsx-1ew5XHZKRS1k6-162" value="" style="shape=tableRow;horizontal=0;startSize=0;swimlaneHead=0;swimlaneBody=0;fillColor=none;collapsible=0;dropTarget=0;points=[[0,0.5],[1,0.5]];portConstraint=eastwest;strokeColor=inherit;top=0;left=0;right=0;bottom=0;" vertex="1" parent="fGjEsx-1ew5XHZKRS1k6-143">
          <mxGeometry y="210" width="312.4409448818898" height="30" as="geometry" />
        </mxCell>
        <mxCell id="fGjEsx-1ew5XHZKRS1k6-163" value="" style="shape=partialRectangle;overflow=hidden;connectable=0;fillColor=none;strokeColor=inherit;top=0;left=0;bottom=0;right=0;" vertex="1" parent="fGjEsx-1ew5XHZKRS1k6-162">
          <mxGeometry width="30" height="30" as="geometry">
            <mxRectangle width="30" height="30" as="alternateBounds" />
          </mxGeometry>
        </mxCell>
        <mxCell id="fGjEsx-1ew5XHZKRS1k6-164" value="created_at timestamp default current_timestamp" style="shape=partialRectangle;overflow=hidden;connectable=0;fillColor=none;align=left;strokeColor=inherit;top=0;left=0;bottom=0;right=0;spacingLeft=6;" vertex="1" parent="fGjEsx-1ew5XHZKRS1k6-162">
          <mxGeometry x="30" width="282.4409448818898" height="30" as="geometry">
            <mxRectangle width="282.4409448818898" height="30" as="alternateBounds" />
          </mxGeometry>
        </mxCell>
        <mxCell id="fGjEsx-1ew5XHZKRS1k6-165" style="edgeStyle=orthogonalEdgeStyle;rounded=0;orthogonalLoop=1;jettySize=auto;html=1;exitX=0;exitY=0.5;exitDx=0;exitDy=0;entryX=1;entryY=0.5;entryDx=0;entryDy=0;endArrow=none;startFill=0;" edge="1" parent="fGjEsx-1ew5XHZKRS1k6-197" source="fGjEsx-1ew5XHZKRS1k6-89" target="fGjEsx-1ew5XHZKRS1k6-37">
          <mxGeometry relative="1" as="geometry" />
        </mxCell>
        <mxCell id="fGjEsx-1ew5XHZKRS1k6-166" value="1" style="edgeLabel;html=1;align=center;verticalAlign=middle;resizable=0;points=[];" vertex="1" connectable="0" parent="fGjEsx-1ew5XHZKRS1k6-165">
          <mxGeometry x="0.9492" y="-2" relative="1" as="geometry">
            <mxPoint as="offset" />
          </mxGeometry>
        </mxCell>
        <mxCell id="fGjEsx-1ew5XHZKRS1k6-167" value="c" style="edgeLabel;html=1;align=center;verticalAlign=middle;resizable=0;points=[];" vertex="1" connectable="0" parent="fGjEsx-1ew5XHZKRS1k6-165">
          <mxGeometry x="-0.908" relative="1" as="geometry">
            <mxPoint as="offset" />
          </mxGeometry>
        </mxCell>
        <mxCell id="fGjEsx-1ew5XHZKRS1k6-168" style="edgeStyle=orthogonalEdgeStyle;rounded=0;orthogonalLoop=1;jettySize=auto;html=1;exitX=0;exitY=0.5;exitDx=0;exitDy=0;entryX=1;entryY=0.5;entryDx=0;entryDy=0;endArrow=none;startFill=0;" edge="1" parent="fGjEsx-1ew5XHZKRS1k6-197" source="fGjEsx-1ew5XHZKRS1k6-86" target="fGjEsx-1ew5XHZKRS1k6-67">
          <mxGeometry relative="1" as="geometry" />
        </mxCell>
        <mxCell id="fGjEsx-1ew5XHZKRS1k6-169" value="mc" style="edgeLabel;html=1;align=center;verticalAlign=middle;resizable=0;points=[];" vertex="1" connectable="0" parent="fGjEsx-1ew5XHZKRS1k6-168">
          <mxGeometry x="-0.8518" y="-1" relative="1" as="geometry">
            <mxPoint as="offset" />
          </mxGeometry>
        </mxCell>
        <mxCell id="fGjEsx-1ew5XHZKRS1k6-170" style="edgeStyle=orthogonalEdgeStyle;rounded=0;orthogonalLoop=1;jettySize=auto;html=1;entryX=1;entryY=0.5;entryDx=0;entryDy=0;endArrow=none;startFill=0;" edge="1" parent="fGjEsx-1ew5XHZKRS1k6-197" source="fGjEsx-1ew5XHZKRS1k6-96" target="fGjEsx-1ew5XHZKRS1k6-67">
          <mxGeometry relative="1" as="geometry" />
        </mxCell>
        <mxCell id="fGjEsx-1ew5XHZKRS1k6-171" value="1" style="edgeLabel;html=1;align=center;verticalAlign=middle;resizable=0;points=[];" vertex="1" connectable="0" parent="fGjEsx-1ew5XHZKRS1k6-170">
          <mxGeometry x="-0.8996" y="1" relative="1" as="geometry">
            <mxPoint as="offset" />
          </mxGeometry>
        </mxCell>
        <mxCell id="fGjEsx-1ew5XHZKRS1k6-172" value="1" style="edgeLabel;html=1;align=center;verticalAlign=middle;resizable=0;points=[];" vertex="1" connectable="0" parent="fGjEsx-1ew5XHZKRS1k6-170">
          <mxGeometry x="0.9354" y="1" relative="1" as="geometry">
            <mxPoint as="offset" />
          </mxGeometry>
        </mxCell>
        <mxCell id="fGjEsx-1ew5XHZKRS1k6-173" style="edgeStyle=orthogonalEdgeStyle;rounded=0;orthogonalLoop=1;jettySize=auto;html=1;exitX=1;exitY=0.5;exitDx=0;exitDy=0;entryX=0;entryY=0.5;entryDx=0;entryDy=0;endArrow=none;startFill=0;" edge="1" parent="fGjEsx-1ew5XHZKRS1k6-197" source="fGjEsx-1ew5XHZKRS1k6-147" target="fGjEsx-1ew5XHZKRS1k6-67">
          <mxGeometry relative="1" as="geometry" />
        </mxCell>
        <mxCell id="fGjEsx-1ew5XHZKRS1k6-174" value="mc" style="edgeLabel;html=1;align=center;verticalAlign=middle;resizable=0;points=[];" vertex="1" connectable="0" parent="fGjEsx-1ew5XHZKRS1k6-173">
          <mxGeometry x="-0.9283" y="-1" relative="1" as="geometry">
            <mxPoint as="offset" />
          </mxGeometry>
        </mxCell>
        <mxCell id="fGjEsx-1ew5XHZKRS1k6-175" style="edgeStyle=orthogonalEdgeStyle;rounded=0;orthogonalLoop=1;jettySize=auto;html=1;exitX=1;exitY=0.5;exitDx=0;exitDy=0;entryX=0;entryY=0.5;entryDx=0;entryDy=0;endArrow=none;startFill=0;" edge="1" parent="fGjEsx-1ew5XHZKRS1k6-197" source="fGjEsx-1ew5XHZKRS1k6-125" target="fGjEsx-1ew5XHZKRS1k6-67">
          <mxGeometry relative="1" as="geometry" />
        </mxCell>
        <mxCell id="fGjEsx-1ew5XHZKRS1k6-176" value="mc" style="edgeLabel;html=1;align=center;verticalAlign=middle;resizable=0;points=[];" vertex="1" connectable="0" parent="fGjEsx-1ew5XHZKRS1k6-175">
          <mxGeometry x="-0.9231" y="1" relative="1" as="geometry">
            <mxPoint as="offset" />
          </mxGeometry>
        </mxCell>
        <mxCell id="fGjEsx-1ew5XHZKRS1k6-177" value="1" style="edgeLabel;html=1;align=center;verticalAlign=middle;resizable=0;points=[];" vertex="1" connectable="0" parent="fGjEsx-1ew5XHZKRS1k6-175">
          <mxGeometry x="0.9399" relative="1" as="geometry">
            <mxPoint as="offset" />
          </mxGeometry>
        </mxCell>
        <mxCell id="fGjEsx-1ew5XHZKRS1k6-178" style="edgeStyle=orthogonalEdgeStyle;rounded=0;orthogonalLoop=1;jettySize=auto;html=1;exitX=0;exitY=0.5;exitDx=0;exitDy=0;entryX=0;entryY=0.5;entryDx=0;entryDy=0;endArrow=none;startFill=0;" edge="1" parent="fGjEsx-1ew5XHZKRS1k6-197" source="fGjEsx-1ew5XHZKRS1k6-122" target="fGjEsx-1ew5XHZKRS1k6-106">
          <mxGeometry relative="1" as="geometry" />
        </mxCell>
        <mxCell id="fGjEsx-1ew5XHZKRS1k6-179" value="1" style="edgeLabel;html=1;align=center;verticalAlign=middle;resizable=0;points=[];" vertex="1" connectable="0" parent="fGjEsx-1ew5XHZKRS1k6-178">
          <mxGeometry x="0.9263" y="2" relative="1" as="geometry">
            <mxPoint as="offset" />
          </mxGeometry>
        </mxCell>
        <mxCell id="fGjEsx-1ew5XHZKRS1k6-180" value="1" style="edgeLabel;html=1;align=center;verticalAlign=middle;resizable=0;points=[];" vertex="1" connectable="0" parent="fGjEsx-1ew5XHZKRS1k6-178">
          <mxGeometry x="-0.9441" y="-2" relative="1" as="geometry">
            <mxPoint as="offset" />
          </mxGeometry>
        </mxCell>
        <mxCell id="fGjEsx-1ew5XHZKRS1k6-181" style="edgeStyle=orthogonalEdgeStyle;rounded=0;orthogonalLoop=1;jettySize=auto;html=1;exitX=0;exitY=0.5;exitDx=0;exitDy=0;entryX=0;entryY=0.5;entryDx=0;entryDy=0;endArrow=none;startFill=0;" edge="1" parent="fGjEsx-1ew5XHZKRS1k6-197" source="fGjEsx-1ew5XHZKRS1k6-37" target="fGjEsx-1ew5XHZKRS1k6-79">
          <mxGeometry relative="1" as="geometry" />
        </mxCell>
        <mxCell id="fGjEsx-1ew5XHZKRS1k6-182" value="mc" style="edgeLabel;html=1;align=center;verticalAlign=middle;resizable=0;points=[];" vertex="1" connectable="0" parent="fGjEsx-1ew5XHZKRS1k6-181">
          <mxGeometry x="0.9346" y="-1" relative="1" as="geometry">
            <mxPoint as="offset" />
          </mxGeometry>
        </mxCell>
        <mxCell id="fGjEsx-1ew5XHZKRS1k6-183" value="1" style="edgeLabel;html=1;align=center;verticalAlign=middle;resizable=0;points=[];" vertex="1" connectable="0" parent="fGjEsx-1ew5XHZKRS1k6-181">
          <mxGeometry x="-0.9208" y="-2" relative="1" as="geometry">
            <mxPoint as="offset" />
          </mxGeometry>
        </mxCell>
        <mxCell id="fGjEsx-1ew5XHZKRS1k6-184" value="" style="shape=tableRow;horizontal=0;startSize=0;swimlaneHead=0;swimlaneBody=0;fillColor=none;collapsible=0;dropTarget=0;points=[[0,0.5],[1,0.5]];portConstraint=eastwest;strokeColor=inherit;top=0;left=0;right=0;bottom=1;" vertex="1" parent="fGjEsx-1ew5XHZKRS1k6-197">
          <mxGeometry x="877.7637795275591" y="376.70454545454544" width="312.4409448818898" height="28.977272727272727" as="geometry" />
        </mxCell>
        <mxCell id="fGjEsx-1ew5XHZKRS1k6-185" value="PK" style="shape=partialRectangle;overflow=hidden;connectable=0;fillColor=none;strokeColor=inherit;top=0;left=0;bottom=0;right=0;fontStyle=1;" vertex="1" parent="fGjEsx-1ew5XHZKRS1k6-197">
          <mxGeometry x="877.7637795275591" y="376.70454545454544" width="29.291338582677167" height="28.977272727272727" as="geometry">
            <mxRectangle width="30" height="30" as="alternateBounds" />
          </mxGeometry>
        </mxCell>
        <mxCell id="fGjEsx-1ew5XHZKRS1k6-186" value="user_id bigint not null" style="shape=partialRectangle;overflow=hidden;connectable=0;fillColor=none;align=left;strokeColor=inherit;top=0;left=0;bottom=0;right=0;spacingLeft=6;fontStyle=5;" vertex="1" parent="fGjEsx-1ew5XHZKRS1k6-197">
          <mxGeometry x="907.0551181102362" y="376.70454545454544" width="283.1496062992126" height="28.977272727272727" as="geometry">
            <mxRectangle width="290" height="30" as="alternateBounds" />
          </mxGeometry>
        </mxCell>
        <mxCell id="fGjEsx-1ew5XHZKRS1k6-187" value="" style="shape=tableRow;horizontal=0;startSize=0;swimlaneHead=0;swimlaneBody=0;fillColor=none;collapsible=0;dropTarget=0;points=[[0,0.5],[1,0.5]];portConstraint=eastwest;strokeColor=inherit;top=0;left=0;right=0;bottom=1;" vertex="1" parent="fGjEsx-1ew5XHZKRS1k6-197">
          <mxGeometry x="877.7637795275591" y="695.4545454545455" width="312.4409448818898" height="28.977272727272727" as="geometry" />
        </mxCell>
        <mxCell id="fGjEsx-1ew5XHZKRS1k6-188" value="PK" style="shape=partialRectangle;overflow=hidden;connectable=0;fillColor=none;strokeColor=inherit;top=0;left=0;bottom=0;right=0;fontStyle=1;" vertex="1" parent="fGjEsx-1ew5XHZKRS1k6-187">
          <mxGeometry width="29.291338582677167" height="28.977272727272727" as="geometry">
            <mxRectangle width="30" height="30" as="alternateBounds" />
          </mxGeometry>
        </mxCell>
        <mxCell id="fGjEsx-1ew5XHZKRS1k6-189" value="follower_id bigint not null" style="shape=partialRectangle;overflow=hidden;connectable=0;fillColor=none;align=left;strokeColor=inherit;top=0;left=0;bottom=0;right=0;spacingLeft=6;fontStyle=5;" vertex="1" parent="fGjEsx-1ew5XHZKRS1k6-187">
          <mxGeometry x="29.291338582677167" width="283.1496062992126" height="28.977272727272727" as="geometry">
            <mxRectangle width="290" height="30" as="alternateBounds" />
          </mxGeometry>
        </mxCell>
        <mxCell id="fGjEsx-1ew5XHZKRS1k6-190" value="" style="shape=tableRow;horizontal=0;startSize=0;swimlaneHead=0;swimlaneBody=0;fillColor=none;collapsible=0;dropTarget=0;points=[[0,0.5],[1,0.5]];portConstraint=eastwest;strokeColor=inherit;top=0;left=0;right=0;bottom=1;" vertex="1" parent="fGjEsx-1ew5XHZKRS1k6-197">
          <mxGeometry x="877.7637795275591" y="347.72727272727275" width="312.4409448818898" height="28.977272727272727" as="geometry" />
        </mxCell>
        <mxCell id="fGjEsx-1ew5XHZKRS1k6-191" value="PK" style="shape=partialRectangle;overflow=hidden;connectable=0;fillColor=none;strokeColor=inherit;top=0;left=0;bottom=0;right=0;fontStyle=1;" vertex="1" parent="fGjEsx-1ew5XHZKRS1k6-190">
          <mxGeometry width="29.291338582677167" height="28.977272727272727" as="geometry">
            <mxRectangle width="30" height="30" as="alternateBounds" />
          </mxGeometry>
        </mxCell>
        <mxCell id="fGjEsx-1ew5XHZKRS1k6-192" value="deck_id bigint not null" style="shape=partialRectangle;overflow=hidden;connectable=0;fillColor=none;align=left;strokeColor=inherit;top=0;left=0;bottom=0;right=0;spacingLeft=6;fontStyle=5;" vertex="1" parent="fGjEsx-1ew5XHZKRS1k6-190">
          <mxGeometry x="29.291338582677167" width="283.1496062992126" height="28.977272727272727" as="geometry">
            <mxRectangle width="290" height="30" as="alternateBounds" />
          </mxGeometry>
        </mxCell>
        <mxCell id="fGjEsx-1ew5XHZKRS1k6-193" value="" style="shape=tableRow;horizontal=0;startSize=0;swimlaneHead=0;swimlaneBody=0;fillColor=none;collapsible=0;dropTarget=0;points=[[0,0.5],[1,0.5]];portConstraint=eastwest;strokeColor=inherit;top=0;left=0;right=0;bottom=1;" vertex="1" parent="fGjEsx-1ew5XHZKRS1k6-197">
          <mxGeometry x="877.7637795275591" y="724.4318181818182" width="312.4409448818898" height="28.977272727272727" as="geometry" />
        </mxCell>
        <mxCell id="fGjEsx-1ew5XHZKRS1k6-194" value="PK" style="shape=partialRectangle;overflow=hidden;connectable=0;fillColor=none;strokeColor=inherit;top=0;left=0;bottom=0;right=0;fontStyle=1;" vertex="1" parent="fGjEsx-1ew5XHZKRS1k6-193">
          <mxGeometry width="29.291338582677167" height="28.977272727272727" as="geometry">
            <mxRectangle width="30" height="30" as="alternateBounds" />
          </mxGeometry>
        </mxCell>
        <mxCell id="fGjEsx-1ew5XHZKRS1k6-195" value="followed_id bigint not null" style="shape=partialRectangle;overflow=hidden;connectable=0;fillColor=none;align=left;strokeColor=inherit;top=0;left=0;bottom=0;right=0;spacingLeft=6;fontStyle=5;" vertex="1" parent="fGjEsx-1ew5XHZKRS1k6-193">
          <mxGeometry x="29.291338582677167" width="283.1496062992126" height="28.977272727272727" as="geometry">
            <mxRectangle width="290" height="30" as="alternateBounds" />
          </mxGeometry>
        </mxCell>
        <mxCell id="fGjEsx-1ew5XHZKRS1k6-204" value="Datenbank FlashCards" style="text;html=1;align=center;verticalAlign=middle;resizable=0;points=[];autosize=1;strokeColor=none;fillColor=none;" vertex="1" parent="fGjEsx-1ew5XHZKRS1k6-197">
          <mxGeometry x="570" width="150" height="30" as="geometry" />
        </mxCell>
        <mxCell id="fGjEsx-1ew5XHZKRS1k6-198" value="Generiert eine Alphanumerische Zeichenkette mit 10 random Zeichen.&lt;div&gt;(Nach jeder Abfrage eine neue Zeichenkette generieren)&lt;/div&gt;" style="rounded=0;whiteSpace=wrap;html=1;" vertex="1" parent="1">
          <mxGeometry x="1210" y="45" width="240" height="100" as="geometry" />
        </mxCell>
        <mxCell id="fGjEsx-1ew5XHZKRS1k6-199" value="Setzt die 10-Stellige Zeichenkette mit einem Wert zusammen, welcher bei allen Clients gleich ist.&lt;div&gt;Wandelt diese Kombination in einen Hash um (SHA256)&lt;/div&gt;" style="rounded=0;whiteSpace=wrap;html=1;" vertex="1" parent="1">
          <mxGeometry x="-40" y="120" width="240" height="100" as="geometry" />
        </mxCell>
        <mxCell id="fGjEsx-1ew5XHZKRS1k6-200" value="" style="endArrow=openThin;dashed=1;html=1;dashPattern=1 3;strokeWidth=2;rounded=0;exitX=0;exitY=0.5;exitDx=0;exitDy=0;endFill=0;entryX=1;entryY=0.5;entryDx=0;entryDy=0;" edge="1" parent="1" source="fGjEsx-1ew5XHZKRS1k6-16" target="fGjEsx-1ew5XHZKRS1k6-199">
          <mxGeometry width="50" height="50" relative="1" as="geometry">
            <mxPoint x="50" y="267.5" as="sourcePoint" />
            <mxPoint x="260" y="252.5" as="targetPoint" />
          </mxGeometry>
        </mxCell>
        <mxCell id="fGjEsx-1ew5XHZKRS1k6-201" value="Vergleiche den mitgeschickten Hash mit dem Lokal generierten Hash" style="rounded=0;whiteSpace=wrap;html=1;" vertex="1" parent="1">
          <mxGeometry x="1210" y="190" width="240" height="100" as="geometry" />
        </mxCell>
        <mxCell id="fGjEsx-1ew5XHZKRS1k6-203" value="PHP-Script" style="text;html=1;align=center;verticalAlign=middle;resizable=0;points=[];autosize=1;strokeColor=none;fillColor=none;" vertex="1" parent="1">
          <mxGeometry x="900" y="70" width="80" height="30" as="geometry" />
        </mxCell>
      </root>
    </mxGraphModel>
  </diagram>
</mxfile>
